/* XPM */
static char * AudacityLogo48x48_xpm[] = {
"48 48 17 1",
" 	c #FFFFFF",
".	c #AFAFAF",
"+	c #404040",
"@	c #707070",
"#	c #505050",
"$	c #000000",
"%	c #EFEFEF",
"&	c #DFDFDF",
"*	c #CFCFCF",
"=	c #101010",
"-	c #808080",
";	c #202020",
">	c #303030",
",	c #606060",
"'	c #8F8F8F",
")	c #9F9F9F",
"!	c #BFBFBF",
"                                                ",
"                                                ",
"                                                ",
"                                                ",
"                              .+@               ",
"                             #$$$#%             ",
"              &*            @$$$$$+             ",
"             .=$@%         -$$$$$$$-%           ",
"            &=$$$;*        @$$$$$$$$$>,.        ",
"            ,$$$$$;%       >$$$$$$$$$$$$'       ",
"           %=$$$$$$.      )$$$$$$$#,$$$$$!      ",
"           )$$$$$$$.     %;$$$$$$;. ,$$$$#      ",
"           +$$$$$$+      -$$$$$$,  .=$>-.       ",
"          !$$$$$$$*     &$$$$$$# !;$$'          ",
"          ,$$$$$$@      ,$$$$$$>>$$+&           ",
"         &$$$$$$>%     %=$$$$$$$$;.             ",
"         -$$$$$$&      -$$$$$$$=)               ",
"         ;$$$$$@  ,=@-'=$$$$$$$$&               ",
"        !$$$$$$' '$$$$$$$$$$>>$$,               ",
"        ,$$$$$>  @$$$$$$$$#% *=$=%              ",
"        =$$$$=*  %;$$$$$$$;>. .$$'              ",
"       .$$$$$-    &,+$$$$$$$$'.>$$$#&           ",
"       ,$$$$$&      )$$$=$$$$$$$$$$$=)          ",
"       =$$$$#   *   ;$$$),$$$$. ,$$$$$)         ",
"      .$$$$;&   '  )$$$=*;$$$;  &$$$$$=         ",
"      ,$$$$-   !)  ;$$$+>$$$$$) @$$$$$$*        ",
"      ;$$$$&   >% @$$$$$#;$$$$$.$$$$$$;  %      ",
"     &$$$$>   @; !$$$$=-,$$$$$$$$$$$$$@  $&     ",
"     )$$$;&  .$' ,$$$;.>$$$$$>@$$$$$$$$,,$)     ",
"     ,$$$-* %=;% +$$$-.$$$$$,%;$$$$$$=$$$$;%    ",
"     ;$$$$$,@$)  ;$$$#%-@=$$+=$$$$$$+&=$$$$-    ",
"    *$$$$$$$$$% )$$$$$'  +$$$$$$$$$+% *=$$$$    ",
"    @$$$$$$$$>  >$$$;$$'-=$$$$$$$$$=&  *=$$$*   ",
"    ;$$=@$$$$) *$$$-%,$$$$$$$;'&&,$$'&  &>$$-   ",
"    $$$+-$$$+  @$$=% '=$$$$$$     -$=$)   *-&   ",
"   *$,+&$$$$-  =$>* @$$$$$$$+      .=$$-        ",
"   '@&%-$$$$& )$>* *=$+)=$$$*       *=$$)       ",
"   )%  -$$$>  +=%   !  !$$$+         %>$$,&     ",
"       &=$$) *$,       %=$$$,         >$$$=%    ",
"        *#@  @=*        !$$$$>!      &$$$$$+    ",
"             ='          *,$$$$+&   '=$$$$$>    ",
"            )>%            *,$$$$+,;$$$$$$,     ",
"            &%               *-=$$$$$$$$>-%     ",
"                                !.-+-#-%        ",
"                                                ",
"                                                ",
"                                                ",
"                                                "};
