/* XPM */
static char *AudacityLogoAlpha[] = {
/* columns rows colors chars-per-pixel */
"48 48 54 1 ",
"  c None",
". c gray10",
"X c #272727",
"o c #282828",
"O c gray16",
"+ c gray18",
"@ c #313131",
"# c #343434",
"$ c #353535",
"% c #373737",
"& c #393939",
"* c #3C3C3C",
"= c gray25",
"- c #434343",
"; c #464646",
": c gray30",
"> c gray33",
", c #5A5A5A",
"< c gray37",
"1 c #676767",
"2 c #686868",
"3 c #717171",
"4 c gray45",
"5 c #808080",
"6 c gray53",
"7 c #898989",
"8 c #8D8D8D",
"9 c gray56",
"0 c gray57",
"q c gray58",
"w c #9A9A9A",
"e c #9D9D9D",
"r c #A2A2A2",
"t c gray65",
"y c #AEAEAE",
"u c gray70",
"i c #B7B7B7",
"p c #B9B9B9",
"a c gray73",
"s c gray74",
"d c #C0C0C0",
"f c gray77",
"g c gray78",
"h c gray79",
"j c #CBCBCB",
"k c #CDCDCD",
"l c gray81",
"z c #D2D2D2",
"x c LightGray",
"c c #D5D5D5",
"v c #D7D7D7",
"b c #D8D8D8",
"n c gray85",
"m c #E6E6E6",
/* pixels */
"                                                ",
"                                                ",
"                                                ",
"                                                ",
"                               %4m              ",
"                             ....,b             ",
"               ym           ......:m            ",
"              ..4b         ........5cm          ",
"             ....%dm       ..........=1tm       ",
"            ......%b       .............8m      ",
"            .......t       .......,<.....um     ",
"            .......r      ........  .....;      ",
"           .......:      .......>   ..O.        ",
"           .......i      ......,m ...%          ",
"          .......4      .......==...            ",
"          ......=       ..........              ",
"         .......f   m  ........X8               ",
"         ......4m .X458X........l               ",
"         ......6  ..............1m              ",
"        ......=  .........,x  ..Xb              ",
"        .....Xu   ........%=tm ..8mm            ",
"        .....5     ..........8e=...,lm          ",
"       ......f       ...X...........Xwm         ",
"       .....,       ....w*....r ......wm        ",
"       ....%p   %   ...Xu....%m  .....Xm        ",
"      .....5    w  ....:=.....wm.......s        ",
"      .....j   .b ......&......t......%m  m     ",
"      ....=   .%m ....X=..............4m .l     ",
"      ...%    .8 ....%0......O+........11.wm    ",
"     ....5im .%l ....57.....1l.......X....%b    ",
"     ......14.w  ....,b@....:X......= .....5m   ",
"     .........c  .....8m ..........:x  .....m   ",
"    .........=m ....%..82..........Xl   ....d   ",
"    ...X4....q  ...5 ........O   ...8jm  ...4   ",
"    ...=<...:m ....   .......m    ....wm   .    ",
"    .<= ....5  ..=w ........:       ...5m       ",
"    4  .....j  .=   ... ....p        ...wm      ",
"       ....=m .Xx       ...:m         ...1lm    ",
"        ...q  .1        ....1m        ....Xb    ",
"         ..  .Xy         ....=um      .....:m   ",
"             .8           .....:lm  %......%    ",
"             O              .....:1%......<     ",
"                              ............      ",
"                                  .....         ",
"                                                ",
"                                                ",
"                                                ",
"                                                "
};
