/* XPM */
static char *SoundModuleFlash[] = {
/* columns rows colors chars-per-pixel */
"16 16 2 1 ",
"  c None",
". c #00913A",
/* pixels */
"                ",
"      ....      ",
"      ....      ",
"      ....      ",
"      ....      ",
"      ....      ",
"      ....      ",
"    ........    ",
"    ........    ",
"     ......     ",
"..    ....    ..",
"...    ..    ...",
"...          ...",
"................",
"................",
"................"
};
